<svg xmlns="http://www.w3.org/2000/svg" viewBox="0 0 1440 320"><path fill="#FFC244" fill-opacity="1" d="M0,160L34.3,154.7C68.6,149,137,139,206,128C274.3,117,343,107,411,122.7C480,139,549,181,617,181.3C685.7,181,754,139,823,149.3C891.4,160,960,224,1029,218.7C1097.1,213,1166,139,1234,112C1302.9,85,1371,107,1406,117.3L1440,128L1440,0L1405.7,0C1371.4,0,1303,0,1234,0C1165.7,0,1097,0,1029,0C960,0,891,0,823,0C754.3,0,686,0,617,0C548.6,0,480,0,411,0C342.9,0,274,0,206,0C137.1,0,69,0,34,0L0,0Z"></path></svg>